<?xml version="1.0" encoding="UTF-8"?>
<!DOCTYPE svg PUBLIC "-//W3C//DTD SVG 1.1//EN" "http://www.w3.org/Graphics/SVG/1.1/DTD/svg11.dtd">
<svg xmlns="http://www.w3.org/2000/svg" version="1.1" width="200px" height="197px" style="shape-rendering:geometricPrecision; text-rendering:geometricPrecision; image-rendering:optimizeQuality; fill-rule:evenodd; clip-rule:evenodd" xmlns:xlink="http://www.w3.org/1999/xlink">
<g><path style="opacity:0.994" fill="#86adf8" d="M 184.5,120.5 C 179.863,115.031 174.697,110.031 169,105.5C 168.027,102.421 167.194,99.4213 166.5,96.5C 166.438,90.0853 165.105,84.0853 162.5,78.5C 153.919,53.9174 136.919,38.9174 111.5,33.5C 103.188,24.8539 94.8547,16.1873 86.5,7.5C 89.4704,4.12357 93.3037,2.79024 98,3.5C 103.662,3.38825 108.828,4.88825 113.5,8C 139.363,33.5308 165.53,58.6974 192,83.5C 199.943,98.0514 197.443,110.385 184.5,120.5 Z"/></g>
<g><path style="opacity:0.989" fill="#8eb7f1" d="M 86.5,7.5 C 94.8547,16.1873 103.188,24.8539 111.5,33.5C 96.0916,31.1817 81.4249,33.5151 67.5,40.5C 65.4605,37.8033 63.4605,35.1367 61.5,32.5C 68.8544,23.1456 77.1877,14.8123 86.5,7.5 Z"/></g>
<g><path style="opacity:0.967" fill="#a3d6e3" d="M 61.5,32.5 C 63.4605,35.1367 65.4605,37.8033 67.5,40.5C 54.2968,49.0347 44.2968,60.3681 37.5,74.5C 34.8333,71.5 32.1667,68.5 29.5,65.5C 39.4675,53.8652 50.1341,42.8652 61.5,32.5 Z"/></g>
<g><path style="opacity:1" fill="#38aacb" d="M 111.5,33.5 C 136.919,38.9174 153.919,53.9174 162.5,78.5C 161.506,89.5094 155.506,94.0094 144.5,92C 142.34,90.668 140.34,89.168 138.5,87.5C 129.351,66.5625 113.351,57.7292 90.5,61C 86.3867,62.188 82.72,64.0214 79.5,66.5C 58.8882,80.6156 54.3882,98.949 66,121.5C 70.0416,127.043 74.8749,131.709 80.5,135.5C 85.0561,148.731 80.3894,155.731 66.5,156.5C 47.0449,145.633 36.0449,128.967 33.5,106.5C 32.7699,95.5458 34.1033,84.8792 37.5,74.5C 44.2968,60.3681 54.2968,49.0347 67.5,40.5C 81.4249,33.5151 96.0916,31.1817 111.5,33.5 Z"/></g>
<g><path style="opacity:0.997" fill="#93bfee" d="M 138.5,87.5 C 140.147,96.6232 139.647,105.623 137,114.5C 136.059,116.727 134.892,118.727 133.5,120.5C 132.685,119.571 131.852,118.571 131,117.5C 129.89,119.037 128.39,119.703 126.5,119.5C 133.27,106.738 133.104,94.0717 126,81.5C 124.629,79.9586 123.129,78.6253 121.5,77.5C 107.754,65.1108 93.4208,64.4441 78.5,75.5C 79.408,72.4153 79.7413,69.4153 79.5,66.5C 82.72,64.0214 86.3867,62.188 90.5,61C 113.351,57.7292 129.351,66.5625 138.5,87.5 Z"/></g>
<g><path style="opacity:0.98" fill="#b2ebd8" d="M 29.5,65.5 C 32.1667,68.5 34.8333,71.5 37.5,74.5C 34.1033,84.8792 32.7699,95.5458 33.5,106.5C 25.9416,99.6083 18.6082,92.2749 11.5,84.5C 16.7967,77.5356 22.7967,71.2023 29.5,65.5 Z"/></g>
<g><path style="opacity:0.998" fill="#a6dbdf" d="M 79.5,66.5 C 79.7413,69.4153 79.408,72.4153 78.5,75.5C 78.5,75.8333 78.5,76.1667 78.5,76.5C 67.5815,86.4528 64.7481,98.4528 70,112.5C 80.4365,130.98 95.6032,136.147 115.5,128C 119.043,124.951 122.709,122.118 126.5,119.5C 128.39,119.703 129.89,119.037 131,117.5C 131.852,118.571 132.685,119.571 133.5,120.5C 129.022,129.8 121.689,135.634 111.5,138C 100.846,140.58 90.513,139.747 80.5,135.5C 74.8749,131.709 70.0416,127.043 66,121.5C 54.3882,98.949 58.8882,80.6156 79.5,66.5 Z"/></g>
<g><path style="opacity:0.995" fill="#941ff8" d="M 121.5,77.5 C 120.167,77.5 119.5,78.1667 119.5,79.5C 111.445,72.9012 102.445,70.9012 92.5,73.5C 88.1854,73.832 84.5187,75.4987 81.5,78.5C 81.0269,77.0937 80.0269,76.427 78.5,76.5C 78.5,76.1667 78.5,75.8333 78.5,75.5C 93.4208,64.4441 107.754,65.1108 121.5,77.5 Z"/></g>
<g><path style="opacity:0.997" fill="#99c4ea" d="M 92.5,73.5 C 102.445,70.9012 111.445,72.9012 119.5,79.5C 129.762,91.9946 130.095,104.661 120.5,117.5C 119.952,115.606 118.952,113.94 117.5,112.5C 118.908,111.757 120.241,110.923 121.5,110C 117.253,106.258 113.586,102.092 110.5,97.5C 111.259,95.5642 112.259,93.7309 113.5,92C 113.252,90.2509 112.252,89.4176 110.5,89.5C 106.41,83.9054 101.744,78.7387 96.5,74C 95.2068,73.51 93.8734,73.3433 92.5,73.5 Z"/></g>
<g><path style="opacity:0.998" fill="#a3d5e3" d="M 92.5,73.5 C 93.8734,73.3433 95.2068,73.51 96.5,74C 101.744,78.7387 106.41,83.9054 110.5,89.5C 105.816,95.1833 100.483,100.183 94.5,104.5C 92.9596,102.613 91.2929,100.78 89.5,99C 87.9262,98.3013 86.5929,98.6346 85.5,100C 88.1415,105.679 92.4748,108.345 98.5,108C 102.076,103.918 106.076,100.418 110.5,97.5C 113.586,102.092 117.253,106.258 121.5,110C 120.241,110.923 118.908,111.757 117.5,112.5C 118.952,113.94 119.952,115.606 120.5,117.5C 112.907,126.531 103.24,129.697 91.5,127C 74.1333,119.432 68.2999,106.599 74,88.5C 75.7911,84.5613 78.2911,81.228 81.5,78.5C 84.5187,75.4987 88.1854,73.832 92.5,73.5 Z"/></g>
<g><path style="opacity:0.996" fill="#3218f8" d="M 78.5,76.5 C 80.0269,76.427 81.0269,77.0937 81.5,78.5C 78.2911,81.228 75.7911,84.5613 74,88.5C 68.2999,106.599 74.1333,119.432 91.5,127C 103.24,129.697 112.907,126.531 120.5,117.5C 130.095,104.661 129.762,91.9946 119.5,79.5C 119.5,78.1667 120.167,77.5 121.5,77.5C 123.129,78.6253 124.629,79.9586 126,81.5C 133.104,94.0717 133.27,106.738 126.5,119.5C 122.709,122.118 119.043,124.951 115.5,128C 95.6032,136.147 80.4365,130.98 70,112.5C 64.7481,98.4528 67.5815,86.4528 78.5,76.5 Z"/></g>
<g><path style="opacity:0.999" fill="#5edee0" d="M 162.5,78.5 C 165.105,84.0853 166.438,90.0853 166.5,96.5C 166.691,114.427 161.358,130.427 150.5,144.5C 143.714,150.963 136.38,156.629 128.5,161.5C 113.5,166.385 98.1666,167.718 82.5,165.5C 76.8076,162.991 71.4743,159.991 66.5,156.5C 80.3894,155.731 85.0561,148.731 80.5,135.5C 90.513,139.747 100.846,140.58 111.5,138C 121.689,135.634 129.022,129.8 133.5,120.5C 134.892,118.727 136.059,116.727 137,114.5C 139.647,105.623 140.147,96.6232 138.5,87.5C 140.34,89.168 142.34,90.668 144.5,92C 155.506,94.0094 161.506,89.5094 162.5,78.5 Z"/></g>
<g><path style="opacity:0.977" fill="#befad0" d="M 11.5,84.5 C 18.6082,92.2749 25.9416,99.6083 33.5,106.5C 36.0449,128.967 47.0449,145.633 66.5,156.5C 71.4743,159.991 76.8076,162.991 82.5,165.5C 82.3505,166.552 82.5172,167.552 83,168.5C 90.7492,175.519 98.4158,182.519 106,189.5C 107.421,191.405 108.588,193.405 109.5,195.5C 108.508,195.328 107.842,195.662 107.5,196.5C 103.833,196.5 100.167,196.5 96.5,196.5C 93.5711,195.462 90.5711,194.296 87.5,193C 61.3035,167.136 34.8035,141.636 8,116.5C 3.88309,109.343 2.54976,101.676 4,93.5C 5.61137,89.7252 8.11137,86.7252 11.5,84.5 Z"/></g>
<g><path style="opacity:0.984" fill="#3715f6" d="M 110.5,89.5 C 112.252,89.4176 113.252,90.2509 113.5,92C 112.259,93.7309 111.259,95.5642 110.5,97.5C 106.076,100.418 102.076,103.918 98.5,108C 92.4748,108.345 88.1415,105.679 85.5,100C 86.5929,98.6346 87.9262,98.3013 89.5,99C 91.2929,100.78 92.9596,102.613 94.5,104.5C 100.483,100.183 105.816,95.1833 110.5,89.5 Z"/></g>
<g><path style="opacity:0.985" fill="#93c2ed" d="M 166.5,96.5 C 167.194,99.4213 168.027,102.421 169,105.5C 174.697,110.031 179.863,115.031 184.5,120.5C 175.2,131.468 165.2,141.801 154.5,151.5C 154.813,148.163 153.48,145.829 150.5,144.5C 161.358,130.427 166.691,114.427 166.5,96.5 Z"/></g>
<g><path style="opacity:0.997" fill="#a7dce1" d="M 150.5,144.5 C 153.48,145.829 154.813,148.163 154.5,151.5C 149.5,158.5 143.5,164.5 136.5,169.5C 133.527,167.194 130.86,164.527 128.5,161.5C 136.38,156.629 143.714,150.963 150.5,144.5 Z"/></g>
<g><path style="opacity:0.987" fill="#b7f1d5" d="M 128.5,161.5 C 130.86,164.527 133.527,167.194 136.5,169.5C 130.041,177.129 123.375,184.629 116.5,192C 114.423,193.705 112.09,194.872 109.5,195.5C 108.588,193.405 107.421,191.405 106,189.5C 98.4158,182.519 90.7492,175.519 83,168.5C 82.5172,167.552 82.3505,166.552 82.5,165.5C 98.1666,167.718 113.5,166.385 128.5,161.5 Z"/></g>
</svg>
